<svg width="71" height="35" viewBox="0 0 71 35" fill="none" xmlns="http://www.w3.org/2000/svg">
<path d="M8.71152 26.3909C8.15355 28.5799 7.8419 29.2083 7.34928 29.7189C7.07559 30.0089 6.74883 30.2387 6.38834 30.3948C6.02786 30.5509 5.64098 30.63 5.25062 30.6275C4.15479 30.6275 3.30527 30.1614 2.43565 29.0198L0.0102539 31.2323C1.14881 33.0469 3.09164 33.9555 5.08222 33.9555C7.0728 33.9555 8.60093 33.4187 9.74954 32.209C10.868 31.0464 11.3807 29.8132 12.0292 27.2524L14.5425 17.4307H11.0238L8.71152 26.3909Z" fill="#27AAE1"/>
<path d="M24.3669 17.1505C21.8948 17.1345 19.5172 18.1394 17.7546 19.9452C15.9919 21.7511 14.9878 24.2109 14.9619 26.7863C14.9619 30.8841 17.7995 34.0026 22.1099 34.0026C24.5821 34.0187 26.9596 33.0138 28.7223 31.2079C30.4849 29.402 31.4891 26.9422 31.5149 24.3669C31.5149 20.2717 28.6773 17.1505 24.3669 17.1505ZM26.1263 29.0905C25.6552 29.5946 25.0927 29.996 24.4713 30.2716C23.85 30.5472 23.1823 30.6913 22.507 30.6956C19.9384 30.6956 18.5309 28.9753 18.5309 26.5532C18.5644 24.8712 19.2114 23.2656 20.3405 22.0627C20.8114 21.5584 21.3739 21.1567 21.9953 20.8812C22.6166 20.6056 23.2844 20.4616 23.9598 20.4576C26.5284 20.4576 27.9359 22.1779 27.9359 24.5999C27.9037 26.2812 27.2585 27.8868 26.1313 29.0905H26.1263Z" fill="#27AAE1"/>
<path d="M39.7084 17.4307H36.2701L32.0703 33.7224H43.3076L44.1546 30.4625H36.3581L39.7084 17.4307Z" fill="#27AAE1"/>
<path d="M45.4468 20.7352H50.2046L46.8543 33.7224H50.2925L53.6454 20.7352H58.4032L59.2527 17.4307H46.2938L45.4468 20.7352Z" fill="#27AAE1"/>
<path d="M70.9999 9.91067H65.8249L68.3081 0L57.3071 15.2758H62.4821L59.9989 25.1891L70.9999 9.91067Z" fill="#27AAE1"/>
</svg>
