<svg width="21" height="20" viewBox="0 0 21 20" fill="none" xmlns="http://www.w3.org/2000/svg">
<mask id="mask0_21_6418" style="mask-type:alpha" maskUnits="userSpaceOnUse" x="2" y="0" width="17" height="20">
<path d="M18.1835 5.14648L13.1835 0.14648C13.1371 0.100033 13.082 0.0631895 13.0213 0.0380554C12.9607 0.0129213 12.8956 -1.02756e-05 12.83 6.1263e-09H3.82999C3.4323 0.000434104 3.05102 0.158609 2.76981 0.439819C2.4886 0.72103 2.33042 1.10231 2.32999 1.5V18.5C2.33042 18.8977 2.4886 19.279 2.76981 19.5602C3.05102 19.8414 3.4323 19.9996 3.82999 20H16.83C17.2277 19.9996 17.609 19.8414 17.8902 19.5602C18.1714 19.279 18.3296 18.8977 18.33 18.5V5.5C18.33 5.43434 18.3171 5.36932 18.2919 5.30866C18.2668 5.248 18.23 5.19289 18.1835 5.14648ZM16.6256 5.00269L13.3427 5.01514L13.3322 1.70929L16.6256 5.00269ZM17.33 18.5C17.3298 18.6326 17.2771 18.7596 17.1833 18.8534C17.0896 18.9471 16.9625 18.9998 16.83 19H3.82999C3.69743 18.9998 3.57035 18.9471 3.47662 18.8534C3.38289 18.7596 3.33016 18.6326 3.32999 18.5V1.5C3.33016 1.36744 3.38289 1.24037 3.47662 1.14664C3.57035 1.05291 3.69743 1.00017 3.82999 1H12.623L12.6235 1.00061L12.33 1.00146L12.3446 5.51855C12.3448 5.65096 12.3976 5.77787 12.4914 5.87137C12.5852 5.96486 12.7122 6.01728 12.8446 6.01709H12.8466L17.33 6V18.5Z" fill="black"/>
<path d="M15.33 10H5.32999V11H15.33V10Z" fill="black"/>
<path d="M15.33 14H5.32999V15H15.33V14Z" fill="black"/>
<path d="M10.33 6H5.32999V7H10.33V6Z" fill="black"/>
</mask>
<g mask="url(#mask0_21_6418)">
<path d="M20.33 0H0.329987V20H20.33V0Z" fill="white" fill-opacity="0.5"/>
</g>
</svg>
